<?xml version="1.0" encoding="UTF-8"?>
<!DOCTYPE svg PUBLIC "-//W3C//DTD SVG 1.1//EN" "http://www.w3.org/Graphics/SVG/1.1/DTD/svg11.dtd">
<!-- Creator: CorelDRAW X8 -->
<svg xmlns="http://www.w3.org/2000/svg" xml:space="preserve" width="2.60417in" height="2.60417in" version="1.1" style="shape-rendering:geometricPrecision; text-rendering:geometricPrecision; image-rendering:optimizeQuality; fill-rule:evenodd; clip-rule:evenodd"
viewBox="0 0 2604 2604"
 xmlns:xlink="http://www.w3.org/1999/xlink">
 <defs>
  <style type="text/css">
   <![CDATA[
    .str0 {stroke:#000;stroke-width: 5.0em;}
    .fil0 {fill:none}
   ]]>
  </style>
 </defs>
 <g id="Layer_x0020_1">
  <metadata id="CorelCorpID_0Corel-Layer"/>
  <rect class="fil0 str0" x="94" y="104" width="2427" height="2427" rx="83" ry="83"/>
  <line class="fil0 str0" x1="1754" y1="407" x2="1754" y2= "1255" />
  <line class="fil0 str0" x1="1754" y1="407" x2="1443" y2= "717" />
  <line class="fil0 str0" x1="1745" y1="407" x2="2055" y2= "717" />
  <line class="fil0 str0" x1="1754" y1="1349" x2="1754" y2= "1692" />
  <line class="fil0 str0" x1="1754" y1="1783" x2="1754" y2= "1955" />
  <line class="fil0 str0" x1="798" y1="1955" x2="798" y2= "1106" />
  <line class="fil0 str0" x1="795" y1="1955" x2="484" y2= "1644" />
  <line class="fil0 str0" x1="787" y1="1955" x2="1097" y2= "1645" />
  <line class="fil0 str0" x1="798" y1="1012" x2="798" y2= "669" />
  <line class="fil0 str0" x1="798" y1="578" x2="798" y2= "407" />
  <line class="fil0 str0" x1="260" y1="2215" x2="260" y2= "2414" />
  <line class="fil0 str0" x1="474" y1="2215" x2="474" y2= "2414" />
  <line class="fil0 str0" x1="682" y1="2215" x2="682" y2= "2414" />
  <line class="fil0 str0" x1="891" y1="2215" x2="891" y2= "2414" />
  <line class="fil0 str0" x1="1099" y1="2215" x2="1099" y2= "2414" />
  <line class="fil0 str0" x1="1307" y1="2215" x2="1307" y2= "2414" />
  <line class="fil0 str0" x1="1516" y1="2215" x2="1516" y2= "2414" />
  <line class="fil0 str0" x1="1724" y1="2215" x2="1724" y2= "2414" />
  <line class="fil0 str0" x1="1932" y1="2215" x2="1932" y2= "2414" />
  <line class="fil0 str0" x1="2141" y1="2215" x2="2141" y2= "2414" />
  <line class="fil0 str0" x1="2349" y1="2215" x2="2349" y2= "2414" />
 </g>
</svg>
